<?xml version="1.0" standalone="no"?>
<!DOCTYPE svg PUBLIC "-//W3C//DTD SVG 20010904//EN"
 "http://www.w3.org/TR/2001/REC-SVG-20010904/DTD/svg10.dtd">
<svg version="1.0" xmlns="http://www.w3.org/2000/svg"
 width="96.000000pt" height="96.000000pt" viewBox="0 0 96.000000 96.000000"
 preserveAspectRatio="xMidYMid meet">
<metadata>
Created by potrace 1.14, written by Peter Selinger 2001-2017
</metadata>
<g transform="translate(0.000000,96.000000) scale(0.100000,-0.100000)"
fill="#000000" stroke="none">
<path d="M235 832 c-11 -2 -41 -10 -67 -18 l-47 -15 19 -32 c10 -18 28 -62 40
-99 27 -84 71 -128 128 -128 45 0 77 21 86 55 4 14 10 25 14 25 16 0 43 -61
49 -110 l6 -50 -112 0 -111 0 0 -45 c0 -33 5 -47 19 -54 10 -6 21 -26 25 -48
13 -80 17 -99 27 -146 l11 -47 158 0 158 0 11 48 c13 56 20 93 28 145 3 22 13
42 24 48 14 7 19 21 19 54 l0 45 -110 0 -109 0 3 46 c3 43 29 93 53 101 6 2
14 -12 17 -31 8 -40 30 -56 75 -56 40 0 82 37 128 113 20 34 43 68 50 76 12
11 8 16 -19 32 -70 41 -105 52 -161 53 -52 1 -61 -2 -83 -27 -26 -30 -31 -75
-11 -96 10 -10 8 -14 -6 -22 -9 -6 -27 -21 -40 -34 l-22 -24 -33 39 c-18 22
-29 40 -24 40 5 0 14 11 20 25 44 97 -61 164 -213 137z"/>
</g>
</svg>
